<svg width="1519" height="2000" xmlns="http://www.w3.org/2000/svg"><g><path d="M-129,-47L-134,1917L-126,1545Z" fill="#d28f8a" stroke="#d28f8a"/><path d="M-129,-47L-126,1545L-114,858Z" fill="#e09080" stroke="#e09080"/><path d="M-129,-47L-114,858L-102,640Z" fill="#e17664" stroke="#e17664"/><path d="M-129,-47L-102,640L-79,428Z" fill="#e2615a" stroke="#e2615a"/><path d="M-129,-47L-79,428L-90,94Z" fill="#e24955" stroke="#e24955"/><path d="M-129,-47L-90,94L16,46Z" fill="#e43f58" stroke="#e43f58"/><path d="M-129,-47L16,46L42,-78Z" fill="#e83e58" stroke="#e83e58"/><path d="M42,-78L16,46L228,77Z" fill="#f25253" stroke="#f25253"/><path d="M42,-78L228,77L247,-95Z" fill="#f85652" stroke="#f85652"/><path d="M42,-78L247,-95L373,-134Z" fill="#fa5656" stroke="#fa5656"/><path d="M247,-95L228,77L432,68Z" fill="#fc7159" stroke="#fc7159"/><path d="M247,-95L432,68L373,-134Z" fill="#fd715f" stroke="#fd715f"/><path d="M373,-134L432,68L518,-27Z" fill="#fe8168" stroke="#fe8168"/><path d="M373,-134L518,-27L714,-52Z" fill="#fe8973" stroke="#fe8973"/><path d="M373,-134L714,-52L804,-129Z" fill="#fa8d7a" stroke="#fa8d7a"/><path d="M373,-134L804,-129L1609,-127Z" fill="#d78784" stroke="#d78784"/><path d="M518,-27L432,68L582,106Z" fill="#fe936d" stroke="#fe936d"/><path d="M518,-27L582,106L650,56Z" fill="#fd9b74" stroke="#fd9b74"/><path d="M518,-27L650,56L714,-52Z" fill="#fb9777" stroke="#fb9777"/><path d="M714,-52L650,56L861,97Z" fill="#f3a37a" stroke="#f3a37a"/><path d="M714,-52L861,97L804,-129Z" fill="#ed9b7d" stroke="#ed9b7d"/><path d="M804,-129L861,97L985,52Z" fill="#df987f" stroke="#df987f"/><path d="M804,-129L985,52L1024,-58Z" fill="#d78f82" stroke="#d78f82"/><path d="M804,-129L1024,-58L1411,-84Z" fill="#bd8084" stroke="#bd8084"/><path d="M804,-129L1411,-84L1609,-127Z" fill="#a0658d" stroke="#a0658d"/><path d="M1024,-58L985,52L1078,42Z" fill="#c69081" stroke="#c69081"/><path d="M1024,-58L1078,42L1164,-28Z" fill="#bb8882" stroke="#bb8882"/><path d="M1024,-58L1164,-28L1282,-42Z" fill="#b07f84" stroke="#b07f84"/><path d="M1024,-58L1282,-42L1411,-84Z" fill="#a5708a" stroke="#a5708a"/><path d="M1164,-28L1078,42L1250,34Z" fill="#af8483" stroke="#af8483"/><path d="M1164,-28L1250,34L1282,-42Z" fill="#a67788" stroke="#a67788"/><path d="M1282,-42L1250,34L1428,32Z" fill="#996c8d" stroke="#996c8d"/><path d="M1282,-42L1428,32L1411,-84Z" fill="#925f92" stroke="#925f92"/><path d="M1411,-84L1428,32L1609,-127Z" fill="#834b99" stroke="#834b99"/><path d="M1609,-127L1428,32L1572,81Z" fill="#7f499b" stroke="#7f499b"/><path d="M1609,-127L1572,81L1729,-85Z" fill="#7f35a2" stroke="#7f35a2"/><path d="M1729,-85L1572,81L1769,58Z" fill="#7f34a4" stroke="#7f34a4"/><path d="M-90,94L-79,428L-63,187Z" fill="#e45553" stroke="#e45553"/><path d="M-90,94L-63,187L16,46Z" fill="#e64b55" stroke="#e64b55"/><path d="M16,46L-63,187L19,224Z" fill="#e95453" stroke="#e95453"/><path d="M16,46L19,224L228,77Z" fill="#f15c51" stroke="#f15c51"/><path d="M228,77L19,224L260,201Z" fill="#f86c4d" stroke="#f86c4d"/><path d="M228,77L260,201L432,68Z" fill="#fc7d57" stroke="#fc7d57"/><path d="M432,68L260,201L383,252Z" fill="#fe8c59" stroke="#fe8c59"/><path d="M432,68L383,252L530,208Z" fill="#fe9962" stroke="#fe9962"/><path d="M432,68L530,208L582,106Z" fill="#ff9d6b" stroke="#ff9d6b"/><path d="M582,106L530,208L705,285Z" fill="#fcae70" stroke="#fcae70"/><path d="M582,106L705,285L650,56Z" fill="#faaa73" stroke="#faaa73"/><path d="M650,56L705,285L772,260Z" fill="#f6b374" stroke="#f6b374"/><path d="M650,56L772,260L861,97Z" fill="#f3af77" stroke="#f3af77"/><path d="M861,97L772,260L994,262Z" fill="#e1af79" stroke="#e1af79"/><path d="M861,97L994,262L985,52Z" fill="#d6a37d" stroke="#d6a37d"/><path d="M985,52L994,262L1084,249Z" fill="#c8a47c" stroke="#c8a47c"/><path d="M985,52L1084,249L1078,42Z" fill="#c39a7f" stroke="#c39a7f"/><path d="M1078,42L1084,249L1218,234Z" fill="#b59b7d" stroke="#b59b7d"/><path d="M1078,42L1218,234L1250,34Z" fill="#ac8b81" stroke="#ac8b81"/><path d="M1250,34L1218,234L1434,241Z" fill="#9d8187" stroke="#9d8187"/><path d="M1250,34L1434,241L1428,32Z" fill="#936e8d" stroke="#936e8d"/><path d="M1428,32L1434,241L1572,81Z" fill="#846094" stroke="#846094"/><path d="M1572,81L1434,241L1587,253Z" fill="#806095" stroke="#806095"/><path d="M1572,81L1587,253L1681,236Z" fill="#80539a" stroke="#80539a"/><path d="M1572,81L1681,236L1769,58Z" fill="#8043a0" stroke="#8043a0"/><path d="M1769,58L1681,236L1767,320Z" fill="#8042a2" stroke="#8042a2"/><path d="M1769,58L1767,320L1779,2179Z" fill="#8080d1" stroke="#8080d1"/><path d="M-63,187L-79,428L19,224Z" fill="#e76053" stroke="#e76053"/><path d="M19,224L-79,428L34,424Z" fill="#ea7058" stroke="#ea7058"/><path d="M19,224L34,424L241,324Z" fill="#f27852" stroke="#f27852"/><path d="M19,224L241,324L260,201Z" fill="#f8764a" stroke="#f8764a"/><path d="M260,201L241,324L383,252Z" fill="#fc8b53" stroke="#fc8b53"/><path d="M383,252L241,324L383,425Z" fill="#fd9e5b" stroke="#fd9e5b"/><path d="M383,252L383,425L535,339Z" fill="#fead65" stroke="#fead65"/><path d="M383,252L535,339L530,208Z" fill="#ffa865" stroke="#ffa865"/><path d="M530,208L535,339L624,356Z" fill="#ffb871" stroke="#ffb871"/><path d="M530,208L624,356L705,285Z" fill="#fcb972" stroke="#fcb972"/><path d="M705,285L624,356L816,404Z" fill="#f6c87a" stroke="#f6c87a"/><path d="M705,285L816,404L772,260Z" fill="#f2c579" stroke="#f2c579"/><path d="M772,260L816,404L997,335Z" fill="#e3c27d" stroke="#e3c27d"/><path d="M772,260L997,335L994,262Z" fill="#dab77c" stroke="#dab77c"/><path d="M994,262L997,335L1084,249Z" fill="#c8af7c" stroke="#c8af7c"/><path d="M1084,249L997,335L1104,361Z" fill="#c1b27f" stroke="#c1b27f"/><path d="M1084,249L1104,361L1218,234Z" fill="#b3a87d" stroke="#b3a87d"/><path d="M1218,234L1104,361L1235,343Z" fill="#aca582" stroke="#aca582"/><path d="M1218,234L1235,343L1434,241Z" fill="#9d8e86" stroke="#9d8e86"/><path d="M1434,241L1235,343L1378,418Z" fill="#968f8e" stroke="#968f8e"/><path d="M1434,241L1378,418L1551,321Z" fill="#887e94" stroke="#887e94"/><path d="M1434,241L1551,321L1587,253Z" fill="#806b95" stroke="#806b95"/><path d="M1587,253L1551,321L1681,236Z" fill="#805e9a" stroke="#805e9a"/><path d="M1681,236L1551,321L1767,320Z" fill="#80589f" stroke="#80589f"/><path d="M-79,428L-102,640L-65,583Z" fill="#e48269" stroke="#e48269"/><path d="M-79,428L-65,583L34,424Z" fill="#e77f61" stroke="#e77f61"/><path d="M34,424L-65,583L110,468Z" fill="#ec8960" stroke="#ec8960"/><path d="M34,424L110,468L241,324Z" fill="#f58857" stroke="#f58857"/><path d="M241,324L110,468L171,529Z" fill="#f89358" stroke="#f89358"/><path d="M241,324L171,529L383,425Z" fill="#fca05c" stroke="#fca05c"/><path d="M383,425L171,529L406,473Z" fill="#fdb164" stroke="#fdb164"/><path d="M383,425L406,473L535,339Z" fill="#feb96b" stroke="#feb96b"/><path d="M535,339L406,473L512,557Z" fill="#ffc673" stroke="#ffc673"/><path d="M535,339L512,557L624,356Z" fill="#ffca78" stroke="#ffca78"/><path d="M624,356L512,557L656,565Z" fill="#fdd880" stroke="#fdd880"/><path d="M624,356L656,565L792,489Z" fill="#f7da81" stroke="#f7da81"/><path d="M624,356L792,489L816,404Z" fill="#f4d47f" stroke="#f4d47f"/><path d="M816,404L792,489L974,466Z" fill="#e3d585" stroke="#e3d585"/><path d="M816,404L974,466L997,335Z" fill="#d8c984" stroke="#d8c984"/><path d="M997,335L974,466L1104,361Z" fill="#c8bf84" stroke="#c8bf84"/><path d="M1104,361L974,466L1182,562Z" fill="#bcc78a" stroke="#bcc78a"/><path d="M1104,361L1182,562L1235,343Z" fill="#aeb789" stroke="#aeb789"/><path d="M1235,343L1182,562L1306,535Z" fill="#a5b691" stroke="#a5b691"/><path d="M1235,343L1306,535L1378,418Z" fill="#9ca592" stroke="#9ca592"/><path d="M1378,418L1306,535L1374,537Z" fill="#96a89a" stroke="#96a89a"/><path d="M1378,418L1374,537L1616,505Z" fill="#87969f" stroke="#87969f"/><path d="M1378,418L1616,505L1551,321Z" fill="#80829e" stroke="#80829e"/><path d="M1551,321L1616,505L1767,320Z" fill="#806aa4" stroke="#806aa4"/><path d="M1767,320L1616,505L1712,553Z" fill="#806dad" stroke="#806dad"/><path d="M1767,320L1712,553L1725,885Z" fill="#8076bb" stroke="#8076bb"/><path d="M1767,320L1725,885L1743,1087Z" fill="#8084cd" stroke="#8084cd"/><path d="M1767,320L1743,1087L1779,2179Z" fill="#6c81db" stroke="#6c81db"/><path d="M-65,583L-102,640L101,711Z" fill="#e89271" stroke="#e89271"/><path d="M-65,583L101,711L171,529Z" fill="#f09a6a" stroke="#f09a6a"/><path d="M-65,583L171,529L110,468Z" fill="#f09261" stroke="#f09261"/><path d="M171,529L101,711L168,675Z" fill="#f6a66b" stroke="#f6a66b"/><path d="M171,529L168,675L396,716Z" fill="#fbb56e" stroke="#fbb56e"/><path d="M171,529L396,716L406,473Z" fill="#fdbc6d" stroke="#fdbc6d"/><path d="M406,473L396,716L512,557Z" fill="#fece79" stroke="#fece79"/><path d="M512,557L396,716L567,726Z" fill="#ffdd88" stroke="#ffdd88"/><path d="M512,557L567,726L656,565Z" fill="#fee38c" stroke="#fee38c"/><path d="M656,565L567,726L701,667Z" fill="#faea91" stroke="#faea91"/><path d="M656,565L701,667L792,489Z" fill="#f5e78c" stroke="#f5e78c"/><path d="M792,489L701,667L835,679Z" fill="#f0ec92" stroke="#f0ec92"/><path d="M792,489L835,679L917,657Z" fill="#e5e794" stroke="#e5e794"/><path d="M792,489L917,657L974,466Z" fill="#dedd8e" stroke="#dedd8e"/><path d="M974,466L917,657L1182,562Z" fill="#c8d792" stroke="#c8d792"/><path d="M1182,562L917,657L1167,662Z" fill="#bcd899" stroke="#bcd899"/><path d="M1182,562L1167,662L1258,677Z" fill="#aacc9e" stroke="#aacc9e"/><path d="M1182,562L1258,677L1306,535Z" fill="#a4c19d" stroke="#a4c19d"/><path d="M1306,535L1258,677L1368,688Z" fill="#9bbca5" stroke="#9bbca5"/><path d="M1306,535L1368,688L1374,537Z" fill="#96b1a3" stroke="#96b1a3"/><path d="M1374,537L1368,688L1587,727Z" fill="#89a9af" stroke="#89a9af"/><path d="M1374,537L1587,727L1616,505Z" fill="#8096ae" stroke="#8096ae"/><path d="M1616,505L1587,727L1692,677Z" fill="#808bb9" stroke="#808bb9"/><path d="M1616,505L1692,677L1712,553Z" fill="#807fb6" stroke="#807fb6"/><path d="M1712,553L1692,677L1725,885Z" fill="#8085c5" stroke="#8085c5"/><path d="M-102,640L-114,858L70,768Z" fill="#e6997c" stroke="#e6997c"/><path d="M-102,640L70,768L101,711Z" fill="#ec9e76" stroke="#ec9e76"/><path d="M101,711L70,768L196,880Z" fill="#f4ae78" stroke="#f4ae78"/><path d="M101,711L196,880L168,675Z" fill="#f7b276" stroke="#f7b276"/><path d="M168,675L196,880L346,767Z" fill="#fbbe79" stroke="#fbbe79"/><path d="M168,675L346,767L396,716Z" fill="#fcc77b" stroke="#fcc77b"/><path d="M396,716L346,767L473,816Z" fill="#feda87" stroke="#feda87"/><path d="M396,716L473,816L567,726Z" fill="#ffe48f" stroke="#ffe48f"/><path d="M567,726L473,816L674,919Z" fill="#fff09b" stroke="#fff09b"/><path d="M567,726L674,919L734,783Z" fill="#f9f59e" stroke="#f9f59e"/><path d="M567,726L734,783L701,667Z" fill="#f9f39a" stroke="#f9f39a"/><path d="M701,667L734,783L835,679Z" fill="#f3f69b" stroke="#f3f69b"/><path d="M835,679L734,783L768,870Z" fill="#f0f9a1" stroke="#f0f9a1"/><path d="M835,679L768,870L965,858Z" fill="#e4f4a4" stroke="#e4f4a4"/><path d="M835,679L965,858L917,657Z" fill="#dcefa2" stroke="#dcefa2"/><path d="M917,657L965,858L1167,662Z" fill="#c9e7a3" stroke="#c9e7a3"/><path d="M1167,662L965,858L1172,861Z" fill="#bae3a7" stroke="#bae3a7"/><path d="M1167,662L1172,861L1258,677Z" fill="#abd6a8" stroke="#abd6a8"/><path d="M1258,677L1172,861L1299,873Z" fill="#a5d1ae" stroke="#a5d1ae"/><path d="M1258,677L1299,873L1368,688Z" fill="#9cc6b0" stroke="#9cc6b0"/><path d="M1368,688L1299,873L1401,831Z" fill="#95c0b5" stroke="#95c0b5"/><path d="M1368,688L1401,831L1537,774Z" fill="#8ab4b9" stroke="#8ab4b9"/><path d="M1368,688L1537,774L1587,727Z" fill="#82a8ba" stroke="#82a8ba"/><path d="M1587,727L1537,774L1725,885Z" fill="#8098c5" stroke="#8098c5"/><path d="M1587,727L1725,885L1692,677Z" fill="#8090c8" stroke="#8090c8"/><path d="M-114,858L-126,1545L-98,1467Z" fill="#c18f8d" stroke="#c18f8d"/><path d="M-114,858L-98,1467L-51,1218Z" fill="#d1948b" stroke="#d1948b"/><path d="M-114,858L-51,1218L-31,1126Z" fill="#de9786" stroke="#de9786"/><path d="M-114,858L-31,1126L-33,944Z" fill="#e59784" stroke="#e59784"/><path d="M-114,858L-33,944L70,768Z" fill="#e89c7f" stroke="#e89c7f"/><path d="M70,768L-33,944L50,945Z" fill="#eda27e" stroke="#eda27e"/><path d="M70,768L50,945L196,880Z" fill="#f3ac7b" stroke="#f3ac7b"/><path d="M196,880L50,945L188,958Z" fill="#f6b17c" stroke="#f6b17c"/><path d="M196,880L188,958L357,923Z" fill="#fbc07e" stroke="#fbc07e"/><path d="M196,880L357,923L346,767Z" fill="#fcc980" stroke="#fcc980"/><path d="M346,767L357,923L473,816Z" fill="#fed888" stroke="#fed888"/><path d="M473,816L357,923L473,986Z" fill="#fede8f" stroke="#fede8f"/><path d="M473,816L473,986L674,919Z" fill="#ffec9a" stroke="#ffec9a"/><path d="M734,783L674,919L768,870Z" fill="#f5f8a1" stroke="#f5f8a1"/><path d="M768,870L674,919L867,967Z" fill="#f1faa5" stroke="#f1faa5"/><path d="M768,870L867,967L965,858Z" fill="#e2f3a7" stroke="#e2f3a7"/><path d="M965,858L867,967L943,938Z" fill="#d9f0a9" stroke="#d9f0a9"/><path d="M965,858L943,938L1071,1028Z" fill="#cdebab" stroke="#cdebab"/><path d="M965,858L1071,1028L1172,861Z" fill="#bfe6ab" stroke="#bfe6ab"/><path d="M1172,861L1071,1028L1234,986Z" fill="#b0dead" stroke="#b0dead"/><path d="M1172,861L1234,986L1299,873Z" fill="#a6d2b0" stroke="#a6d2b0"/><path d="M1299,873L1234,986L1382,1018Z" fill="#9cc7b7" stroke="#9cc7b7"/><path d="M1299,873L1382,1018L1401,831Z" fill="#94bfb8" stroke="#94bfb8"/><path d="M1401,831L1382,1018L1557,916Z" fill="#89b2be" stroke="#89b2be"/><path d="M1401,831L1557,916L1537,774Z" fill="#82aabf" stroke="#82aabf"/><path d="M1537,774L1557,916L1725,885Z" fill="#8099c7" stroke="#8099c7"/><path d="M1725,885L1557,916L1693,1022Z" fill="#8091cc" stroke="#8091cc"/><path d="M1725,885L1693,1022L1743,1087Z" fill="#8088d2" stroke="#8088d2"/><path d="M-33,944L-31,1126L50,945Z" fill="#e99e82" stroke="#e99e82"/><path d="M50,945L-31,1126L125,1091Z" fill="#e9a582" stroke="#e9a582"/><path d="M50,945L125,1091L188,958Z" fill="#f4ae7e" stroke="#f4ae7e"/><path d="M188,958L125,1091L166,1118Z" fill="#f2b37f" stroke="#f2b37f"/><path d="M188,958L166,1118L357,923Z" fill="#fbbe80" stroke="#fbbe80"/><path d="M357,923L166,1118L410,1181Z" fill="#f5cb88" stroke="#f5cb88"/><path d="M357,923L410,1181L473,986Z" fill="#fbdb90" stroke="#fbdb90"/><path d="M473,986L410,1181L570,1130Z" fill="#f5e59a" stroke="#f5e59a"/><path d="M473,986L570,1130L674,919Z" fill="#fef0a1" stroke="#fef0a1"/><path d="M674,919L570,1130L698,1146Z" fill="#f3f4a5" stroke="#f3f4a5"/><path d="M674,919L698,1146L777,1111Z" fill="#eff8a7" stroke="#eff8a7"/><path d="M674,919L777,1111L867,967Z" fill="#f1f9a7" stroke="#f1f9a7"/><path d="M867,967L777,1111L915,1175Z" fill="#dcf4ac" stroke="#dcf4ac"/><path d="M867,967L915,1175L943,938Z" fill="#d9f1ac" stroke="#d9f1ac"/><path d="M943,938L915,1175L1071,1028Z" fill="#cbecae" stroke="#cbecae"/><path d="M1071,1028L915,1175L994,1265Z" fill="#bdebb1" stroke="#bdebb1"/><path d="M1071,1028L994,1265L1163,1082Z" fill="#b2e5b1" stroke="#b2e5b1"/><path d="M1071,1028L1163,1082L1234,986Z" fill="#addeaf" stroke="#addeaf"/><path d="M1234,986L1163,1082L1333,1184Z" fill="#9cd1b6" stroke="#9cd1b6"/><path d="M1234,986L1333,1184L1382,1018Z" fill="#94c6ba" stroke="#94c6ba"/><path d="M1382,1018L1333,1184L1425,1123Z" fill="#87bcc0" stroke="#87bcc0"/><path d="M1382,1018L1425,1123L1557,916Z" fill="#86b1c2" stroke="#86b1c2"/><path d="M1557,916L1425,1123L1603,1158Z" fill="#79a5c8" stroke="#79a5c8"/><path d="M1557,916L1603,1158L1693,1022Z" fill="#7c98cc" stroke="#7c98cc"/><path d="M1693,1022L1603,1158L1743,1087Z" fill="#778ed2" stroke="#778ed2"/><path d="M-31,1126L-51,1218L56,1255Z" fill="#d59e89" stroke="#d59e89"/><path d="M-31,1126L56,1255L125,1091Z" fill="#dea585" stroke="#dea585"/><path d="M125,1091L56,1255L166,1118Z" fill="#e4ad83" stroke="#e4ad83"/><path d="M166,1118L56,1255L171,1283Z" fill="#deaf85" stroke="#deaf85"/><path d="M166,1118L171,1283L316,1287Z" fill="#e3bb85" stroke="#e3bb85"/><path d="M166,1118L316,1287L410,1181Z" fill="#e8c98b" stroke="#e8c98b"/><path d="M410,1181L316,1287L393,1416Z" fill="#ddd492" stroke="#ddd492"/><path d="M410,1181L393,1416L562,1231Z" fill="#e0e09b" stroke="#e0e09b"/><path d="M410,1181L562,1231L570,1130Z" fill="#ece8a0" stroke="#ece8a0"/><path d="M570,1130L562,1231L698,1146Z" fill="#ebf2a7" stroke="#ebf2a7"/><path d="M698,1146L562,1231L721,1308Z" fill="#e2f5aa" stroke="#e2f5aa"/><path d="M698,1146L721,1308L816,1303Z" fill="#daf9ae" stroke="#daf9ae"/><path d="M698,1146L816,1303L777,1111Z" fill="#dffaac" stroke="#dffaac"/><path d="M777,1111L816,1303L915,1175Z" fill="#d3f5af" stroke="#d3f5af"/><path d="M915,1175L816,1303L994,1265Z" fill="#c2f1b3" stroke="#c2f1b3"/><path d="M1163,1082L994,1265L1100,1303Z" fill="#a6e5b4" stroke="#a6e5b4"/><path d="M1163,1082L1100,1303L1293,1238Z" fill="#97dab6" stroke="#97dab6"/><path d="M1163,1082L1293,1238L1333,1184Z" fill="#91ceba" stroke="#91ceba"/><path d="M1333,1184L1293,1238L1390,1244Z" fill="#81c2c0" stroke="#81c2c0"/><path d="M1333,1184L1390,1244L1425,1123Z" fill="#7fbcc2" stroke="#7fbcc2"/><path d="M1425,1123L1390,1244L1603,1158Z" fill="#73aec8" stroke="#73aec8"/><path d="M1603,1158L1390,1244L1600,1280Z" fill="#69a5cd" stroke="#69a5cd"/><path d="M1603,1158L1600,1280L1707,1245Z" fill="#6995d4" stroke="#6995d4"/><path d="M1603,1158L1707,1245L1743,1087Z" fill="#6f8dd5" stroke="#6f8dd5"/><path d="M1743,1087L1707,1245L1727,1414Z" fill="#6687da" stroke="#6687da"/><path d="M1743,1087L1727,1414L1779,2179Z" fill="#356fdf" stroke="#356fdf"/><path d="M-51,1218L-98,1467L56,1255Z" fill="#c4988b" stroke="#c4988b"/><path d="M56,1255L-98,1467L100,1373Z" fill="#bf9c89" stroke="#bf9c89"/><path d="M56,1255L100,1373L171,1283Z" fill="#d1aa86" stroke="#d1aa86"/><path d="M171,1283L100,1373L255,1441Z" fill="#ccaf84" stroke="#ccaf84"/><path d="M171,1283L255,1441L316,1287Z" fill="#d3bc88" stroke="#d3bc88"/><path d="M316,1287L255,1441L393,1416Z" fill="#cdc68f" stroke="#cdc68f"/><path d="M562,1231L393,1416L556,1395Z" fill="#d5e3a0" stroke="#d5e3a0"/><path d="M562,1231L556,1395L721,1308Z" fill="#d9efa9" stroke="#d9efa9"/><path d="M721,1308L556,1395L636,1429Z" fill="#cceeab" stroke="#cceeab"/><path d="M721,1308L636,1429L830,1483Z" fill="#c1f1ae" stroke="#c1f1ae"/><path d="M721,1308L830,1483L816,1303Z" fill="#c2f3af" stroke="#c2f3af"/><path d="M816,1303L830,1483L918,1406Z" fill="#b2edb2" stroke="#b2edb2"/><path d="M816,1303L918,1406L994,1265Z" fill="#b5edb3" stroke="#b5edb3"/><path d="M994,1265L918,1406L1100,1303Z" fill="#a5e7b4" stroke="#a5e7b4"/><path d="M1100,1303L918,1406L1139,1472Z" fill="#91e0b5" stroke="#91e0b5"/><path d="M1100,1303L1139,1472L1246,1370Z" fill="#80d7b7" stroke="#80d7b7"/><path d="M1100,1303L1246,1370L1293,1238Z" fill="#86d3b9" stroke="#86d3b9"/><path d="M1293,1238L1246,1370L1390,1244Z" fill="#7cc5c0" stroke="#7cc5c0"/><path d="M1390,1244L1246,1370L1416,1388Z" fill="#6ebcc2" stroke="#6ebcc2"/><path d="M1390,1244L1416,1388L1600,1280Z" fill="#63acca" stroke="#63acca"/><path d="M1600,1280L1416,1388L1589,1398Z" fill="#559fce" stroke="#559fce"/><path d="M1600,1280L1589,1398L1727,1414Z" fill="#538fd4" stroke="#538fd4"/><path d="M1600,1280L1727,1414L1707,1245Z" fill="#5c8bd7" stroke="#5c8bd7"/><path d="M-98,1467L-126,1545L79,1575Z" fill="#a0898d" stroke="#a0898d"/><path d="M-98,1467L79,1575L100,1373Z" fill="#ae9889" stroke="#ae9889"/><path d="M100,1373L79,1575L188,1522Z" fill="#b3a286" stroke="#b3a286"/><path d="M100,1373L188,1522L255,1441Z" fill="#bfac85" stroke="#bfac85"/><path d="M255,1441L188,1522L372,1604Z" fill="#b6b58c" stroke="#b6b58c"/><path d="M255,1441L372,1604L393,1416Z" fill="#bcc490" stroke="#bcc490"/><path d="M393,1416L372,1604L545,1610Z" fill="#b6cc9c" stroke="#b6cc9c"/><path d="M393,1416L545,1610L556,1395Z" fill="#c0dca0" stroke="#c0dca0"/><path d="M556,1395L545,1610L633,1569Z" fill="#b8e1aa" stroke="#b8e1aa"/><path d="M556,1395L633,1569L636,1429Z" fill="#bfe7aa" stroke="#bfe7aa"/><path d="M636,1429L633,1569L830,1483Z" fill="#b5ebad" stroke="#b5ebad"/><path d="M830,1483L633,1569L772,1608Z" fill="#aae6b1" stroke="#aae6b1"/><path d="M830,1483L772,1608L1005,1570Z" fill="#98e0b5" stroke="#98e0b5"/><path d="M830,1483L1005,1570L918,1406Z" fill="#9ae5b4" stroke="#9ae5b4"/><path d="M918,1406L1005,1570L1139,1472Z" fill="#88deb5" stroke="#88deb5"/><path d="M1139,1472L1005,1570L1099,1548Z" fill="#77d5b7" stroke="#77d5b7"/><path d="M1139,1472L1099,1548L1216,1630Z" fill="#68ccb9" stroke="#68ccb9"/><path d="M1139,1472L1216,1630L1374,1565Z" fill="#5bbdbf" stroke="#5bbdbf"/><path d="M1139,1472L1374,1565L1246,1370Z" fill="#65c5bc" stroke="#65c5bc"/><path d="M1246,1370L1374,1565L1416,1388Z" fill="#5eb8c2" stroke="#5eb8c2"/><path d="M1416,1388L1374,1565L1538,1531Z" fill="#47a7c8" stroke="#47a7c8"/><path d="M1416,1388L1538,1531L1589,1398Z" fill="#479ecd" stroke="#479ecd"/><path d="M1589,1398L1538,1531L1727,1414Z" fill="#458ed4" stroke="#458ed4"/><path d="M1727,1414L1538,1531L1698,1612Z" fill="#3a84d7" stroke="#3a84d7"/><path d="M1727,1414L1698,1612L1701,1706Z" fill="#3373de" stroke="#3373de"/><path d="M1727,1414L1701,1706L1738,1902Z" fill="#2764e4" stroke="#2764e4"/><path d="M1727,1414L1738,1902L1779,2179Z" fill="#144aee" stroke="#144aee"/><path d="M-126,1545L-134,1917L-129,1778Z" fill="#7e619c" stroke="#7e619c"/><path d="M-126,1545L-129,1778L79,1575Z" fill="#927994" stroke="#927994"/><path d="M79,1575L-129,1778L98,1752Z" fill="#907995" stroke="#907995"/><path d="M79,1575L98,1752L188,1522Z" fill="#a3928d" stroke="#a3928d"/><path d="M188,1522L98,1752L282,1759Z" fill="#a1928e" stroke="#a1928e"/><path d="M188,1522L282,1759L372,1604Z" fill="#a9a892" stroke="#a9a892"/><path d="M372,1604L282,1759L396,1691Z" fill="#a4ac9b" stroke="#a4ac9b"/><path d="M372,1604L396,1691L545,1610Z" fill="#abc0a1" stroke="#abc0a1"/><path d="M545,1610L396,1691L536,1784Z" fill="#a4bfab" stroke="#a4bfab"/><path d="M545,1610L536,1784L687,1717Z" fill="#a1c9b4" stroke="#a1c9b4"/><path d="M545,1610L687,1717L633,1569Z" fill="#a8d5b2" stroke="#a8d5b2"/><path d="M633,1569L687,1717L772,1608Z" fill="#a3d9b4" stroke="#a3d9b4"/><path d="M772,1608L687,1717L819,1756Z" fill="#98d4ba" stroke="#98d4ba"/><path d="M772,1608L819,1756L1005,1570Z" fill="#8dd4ba" stroke="#8dd4ba"/><path d="M1005,1570L819,1756L1008,1752Z" fill="#7bc8c0" stroke="#7bc8c0"/><path d="M1005,1570L1008,1752L1099,1548Z" fill="#73cbbc" stroke="#73cbbc"/><path d="M1099,1548L1008,1752L1116,1783Z" fill="#64bec0" stroke="#64bec0"/><path d="M1099,1548L1116,1783L1216,1630Z" fill="#5cbfbe" stroke="#5cbfbe"/><path d="M1216,1630L1116,1783L1321,1779Z" fill="#49a9c7" stroke="#49a9c7"/><path d="M1216,1630L1321,1779L1374,1565Z" fill="#46a6c9" stroke="#46a6c9"/><path d="M1374,1565L1321,1779L1482,1770Z" fill="#3492d1" stroke="#3492d1"/><path d="M1374,1565L1482,1770L1570,1712Z" fill="#2b88d4" stroke="#2b88d4"/><path d="M1374,1565L1570,1712L1538,1531Z" fill="#3391d1" stroke="#3391d1"/><path d="M1538,1531L1570,1712L1698,1612Z" fill="#2e7ed9" stroke="#2e7ed9"/><path d="M1698,1612L1570,1712L1701,1706Z" fill="#276de0" stroke="#276de0"/><path d="M-129,1778L-134,1917L30,1835Z" fill="#765aa0" stroke="#765aa0"/><path d="M-129,1778L30,1835L98,1752Z" fill="#836b9a" stroke="#836b9a"/><path d="M98,1752L30,1835L184,1832Z" fill="#8a7598" stroke="#8a7598"/><path d="M98,1752L184,1832L282,1759Z" fill="#948394" stroke="#948394"/><path d="M282,1759L184,1832L403,1883Z" fill="#918e9e" stroke="#918e9e"/><path d="M282,1759L403,1883L396,1691Z" fill="#98a1a1" stroke="#98a1a1"/><path d="M396,1691L403,1883L536,1784Z" fill="#98acaa" stroke="#98acaa"/><path d="M536,1784L403,1883L518,1850Z" fill="#92aab2" stroke="#92aab2"/><path d="M536,1784L518,1850L633,1889Z" fill="#91b4ba" stroke="#91b4ba"/><path d="M536,1784L633,1889L687,1717Z" fill="#94bdba" stroke="#94bdba"/><path d="M687,1717L633,1889L819,1756Z" fill="#8fc4bd" stroke="#8fc4bd"/><path d="M819,1756L633,1889L845,1841Z" fill="#86c0c1" stroke="#86c0c1"/><path d="M819,1756L845,1841L1008,1752Z" fill="#78bfc3" stroke="#78bfc3"/><path d="M1008,1752L845,1841L1013,1826Z" fill="#6bb7c6" stroke="#6bb7c6"/><path d="M1008,1752L1013,1826L1116,1783Z" fill="#5db4c5" stroke="#5db4c5"/><path d="M1116,1783L1013,1826L1123,1910Z" fill="#50aac8" stroke="#50aac8"/><path d="M1116,1783L1123,1910L1227,1871Z" fill="#42a1ca" stroke="#42a1ca"/><path d="M1116,1783L1227,1871L1321,1779Z" fill="#3e9dcc" stroke="#3e9dcc"/><path d="M1321,1779L1227,1871L1452,1855Z" fill="#2c89d5" stroke="#2c89d5"/><path d="M1321,1779L1452,1855L1482,1770Z" fill="#2481d8" stroke="#2481d8"/><path d="M1482,1770L1452,1855L1553,1905Z" fill="#146fdf" stroke="#146fdf"/><path d="M1482,1770L1553,1905L1570,1712Z" fill="#186fdf" stroke="#186fdf"/><path d="M1570,1712L1553,1905L1701,1706Z" fill="#1b67e2" stroke="#1b67e2"/><path d="M1701,1706L1553,1905L1738,1902Z" fill="#1356e9" stroke="#1356e9"/><path d="M-134,1917L-33,2227L-17,1996Z" fill="#6640a9" stroke="#6640a9"/><path d="M-134,1917L-17,1996L30,1835Z" fill="#7054a3" stroke="#7054a3"/><path d="M30,1835L-17,1996L82,2010Z" fill="#7259a2" stroke="#7259a2"/><path d="M30,1835L82,2010L184,1832Z" fill="#7f699d" stroke="#7f699d"/><path d="M184,1832L82,2010L271,1997Z" fill="#7e6b9e" stroke="#7e6b9e"/><path d="M184,1832L271,1997L403,1883Z" fill="#8783a2" stroke="#8783a2"/><path d="M403,1883L271,1997L381,2029Z" fill="#8185ac" stroke="#8185ac"/><path d="M403,1883L381,2029L496,2024Z" fill="#808fb3" stroke="#808fb3"/><path d="M403,1883L496,2024L518,1850Z" fill="#879db5" stroke="#879db5"/><path d="M518,1850L496,2024L633,1889Z" fill="#88a7bd" stroke="#88a7bd"/><path d="M633,1889L496,2024L681,2064Z" fill="#7da2c5" stroke="#7da2c5"/><path d="M633,1889L681,2064L850,1988Z" fill="#77aac8" stroke="#77aac8"/><path d="M633,1889L850,1988L845,1841Z" fill="#7bb5c6" stroke="#7bb5c6"/><path d="M845,1841L850,1988L1013,1826Z" fill="#6ab0c9" stroke="#6ab0c9"/><path d="M1013,1826L850,1988L931,2037Z" fill="#5da5cd" stroke="#5da5cd"/><path d="M1013,1826L931,2037L1066,2050Z" fill="#4e9dcf" stroke="#4e9dcf"/><path d="M1013,1826L1066,2050L1123,1910Z" fill="#489fcd" stroke="#489fcd"/><path d="M1123,1910L1066,2050L1244,2078Z" fill="#338dd2" stroke="#338dd2"/><path d="M1123,1910L1244,2078L1227,1871Z" fill="#308dd2" stroke="#308dd2"/><path d="M1227,1871L1244,2078L1449,2031Z" fill="#1c77db" stroke="#1c77db"/><path d="M1227,1871L1449,2031L1452,1855Z" fill="#1b77dc" stroke="#1b77dc"/><path d="M1452,1855L1449,2031L1553,1905Z" fill="#0b64e3" stroke="#0b64e3"/><path d="M1553,1905L1449,2031L1548,2034Z" fill="#0058e9" stroke="#0058e9"/><path d="M1553,1905L1548,2034L1721,2039Z" fill="#0049ee" stroke="#0049ee"/><path d="M1553,1905L1721,2039L1738,1902Z" fill="#0546f0" stroke="#0546f0"/><path d="M1738,1902L1721,2039L1779,2179Z" fill="#002ef9" stroke="#002ef9"/><path d="M-17,1996L-33,2227L69,2178Z" fill="#6b3ca7" stroke="#6b3ca7"/><path d="M-17,1996L69,2178L82,2010Z" fill="#6e4ba6" stroke="#6e4ba6"/><path d="M82,2010L69,2178L195,2198Z" fill="#744aa4" stroke="#744aa4"/><path d="M82,2010L195,2198L271,1997Z" fill="#7a5ba1" stroke="#7a5ba1"/><path d="M271,1997L195,2198L352,2156Z" fill="#7c63a8" stroke="#7c63a8"/><path d="M271,1997L352,2156L381,2029Z" fill="#7e76ad" stroke="#7e76ad"/><path d="M381,2029L352,2156L496,2024Z" fill="#7f80b4" stroke="#7f80b4"/><path d="M496,2024L352,2156L529,2176Z" fill="#7f80b9" stroke="#7f80b9"/><path d="M496,2024L529,2176L681,2064Z" fill="#7f93c5" stroke="#7f93c5"/><path d="M681,2064L529,2176L726,2195Z" fill="#7a8fc8" stroke="#7a8fc8"/><path d="M681,2064L726,2195L791,2215Z" fill="#7592cb" stroke="#7592cb"/><path d="M681,2064L791,2215L850,1988Z" fill="#719ccc" stroke="#719ccc"/><path d="M850,1988L791,2215L931,2037Z" fill="#6498cf" stroke="#6498cf"/><path d="M931,2037L791,2215L952,2212Z" fill="#5f8bd0" stroke="#5f8bd0"/><path d="M931,2037L952,2212L1066,2050Z" fill="#508dd2" stroke="#508dd2"/><path d="M1066,2050L952,2212L1145,2150Z" fill="#4383d2" stroke="#4383d2"/><path d="M1066,2050L1145,2150L1244,2078Z" fill="#3281d3" stroke="#3281d3"/><path d="M1244,2078L1145,2150L1251,2233Z" fill="#296fd7" stroke="#296fd7"/><path d="M1244,2078L1251,2233L1430,2125Z" fill="#1c62dd" stroke="#1c62dd"/><path d="M1244,2078L1430,2125L1449,2031Z" fill="#1361e1" stroke="#1361e1"/><path d="M1449,2031L1430,2125L1548,2034Z" fill="#0554e8" stroke="#0554e8"/><path d="M1548,2034L1430,2125L1592,2202Z" fill="#0045eb" stroke="#0045eb"/><path d="M1548,2034L1592,2202L1721,2039Z" fill="#003af1" stroke="#003af1"/><path d="M1721,2039L1592,2202L1779,2179Z" fill="#0027f6" stroke="#0027f6"/><path d="M-33,2227L1251,2233L791,2215Z" fill="#7985c9" stroke="#7985c9"/><path d="M-33,2227L791,2215L195,2198Z" fill="#7d5eab" stroke="#7d5eab"/><path d="M-33,2227L195,2198L69,2178Z" fill="#713ca5" stroke="#713ca5"/><path d="M195,2198L791,2215L529,2176Z" fill="#7f7bbe" stroke="#7f7bbe"/><path d="M195,2198L529,2176L352,2156Z" fill="#7e6aaf" stroke="#7e6aaf"/><path d="M529,2176L791,2215L726,2195Z" fill="#788ac9" stroke="#788ac9"/><path d="M791,2215L1251,2233L952,2212Z" fill="#4d7bd2" stroke="#4d7bd2"/><path d="M952,2212L1251,2233L1145,2150Z" fill="#3776d2" stroke="#3776d2"/><path d="M1251,2233L1592,2202L1430,2125Z" fill="#0c4ae4" stroke="#0c4ae4"/></g></svg>